<?xml version="1.0" standalone="no"?><!DOCTYPE svg PUBLIC "-//W3C//DTD SVG 1.1//EN" "http://www.w3.org/Graphics/SVG/1.1/DTD/svg11.dtd"><svg t="1602921187448" class="icon" viewBox="0 0 1024 1024" version="1.1" xmlns="http://www.w3.org/2000/svg" p-id="1941" xmlns:xlink="http://www.w3.org/1999/xlink" width="20" height="20"><defs><style type="text/css"></style></defs><path d="M884.736 427.008c0-11.264-4.608-22.528-13.312-30.208l-331.776-304.128c-15.872-14.336-39.424-14.336-54.784 0L151.552 398.848C143.36 406.528 138.24 417.792 138.24 429.056l0.512 472.064c0 22.528 18.432 40.96 40.448 40.96h192.512c22.528 0 40.448-18.432 40.448-40.96v-189.952c0-55.296 44.544-99.84 99.328-99.84s99.328 44.544 99.328 99.84V901.12c0 22.528 18.432 40.96 40.448 40.96h193.024c10.752 0 20.992-4.096 28.672-11.776 7.68-7.68 11.776-17.92 11.776-28.672V427.008zM651.776 901.12v-189.952c0-77.824-62.464-140.288-139.776-140.288s-139.776 62.976-139.776 140.288V901.12H179.2l-0.512-472.064L512.512 122.88l331.776 304.128 1.024 474.112h-193.536z" p-id="1942" fill="#2c2c2c"></path></svg>