<?xml version="1.0" standalone="no"?><!DOCTYPE svg PUBLIC "-//W3C//DTD SVG 1.1//EN" "http://www.w3.org/Graphics/SVG/1.1/DTD/svg11.dtd"><svg t="1604133451019" class="icon" viewBox="0 0 1162 1024" version="1.1" xmlns="http://www.w3.org/2000/svg" p-id="2552" width="28.369140625" height="25" xmlns:xlink="http://www.w3.org/1999/xlink"><defs><style type="text/css"></style></defs><path d="M962.195652 1023.985667H200.204807C89.8399 1023.985667 0 934.174433 0 823.78086V200.204807C0 89.8399 89.811234 0 200.204807 0h762.005179c110.364906 0 200.204807 89.811234 200.204806 200.204807v623.490055c-0.014333 110.479571-89.811234 200.290805-200.21914 200.290805zM200.204807 50.194533A150.210937 150.210937 0 0 0 50.151533 200.204807v623.490055a150.210937 150.210937 0 0 0 150.038941 150.03894h762.005178a150.210937 150.210937 0 0 0 150.038941-149.952942V200.204807A150.210937 150.210937 0 0 0 962.195652 50.165866z" p-id="2553"></path><path d="M1135.898548 702.909788H760.858531a173.430567 173.430567 0 0 1 0-346.775135h373.62104v50.165866H760.858531a123.264701 123.264701 0 0 0 0 246.443403H1135.898548z" p-id="2554"></path><path d="M783.132175 529.522221m-60.743697 0a60.743698 60.743698 0 1 0 121.487395 0 60.743698 60.743698 0 1 0-121.487395 0Z" p-id="2555"></path></svg>