<?xml version="1.0" standalone="no"?><!DOCTYPE svg PUBLIC "-//W3C//DTD SVG 1.1//EN" "http://www.w3.org/Graphics/SVG/1.1/DTD/svg11.dtd"><svg t="1604133603646" class="icon" viewBox="0 0 1024 1024" version="1.1" xmlns="http://www.w3.org/2000/svg" p-id="4090" width="25" height="25" xmlns:xlink="http://www.w3.org/1999/xlink"><defs><style type="text/css"></style></defs><path d="M785.107633 66.861804l-489.171062 0-7.2798 0-49.65491 0c-48.787146 0-88.446401 35.856649-88.446401 79.918167l0 441.850313-0.10847 0 0 288.537556c0 44.11473 39.767725 79.970356 88.499613 79.970356l546.05256 0c48.787146 0 88.500637-35.855626 88.500637-79.970356l0-274.900977 0.054235 0L873.554034 146.779971C873.553011 102.718453 833.840544 66.861804 785.107633 66.861804zM817.92097 588.630285l-0.054235 0 0 288.537556c0 13.255908-15.048741 24.339338-32.868595 24.339338L238.945579 901.507178c-17.819854 0-32.868595-11.083429-32.868595-24.339338l0-274.900977 0.10847 0L206.185454 146.779971c0-13.148461 14.994506-24.339338 32.81436-24.339338l49.65491 0 7.2798 0 489.171062 0c17.819854 0 32.813337 11.1919 32.813337 24.339338L817.918923 588.630285z" p-id="4091"></path><path d="M289.525558 455.03766l333.683778 0c15.32094 0 27.816532-12.441357 27.816532-27.816532 0-15.375176-12.495592-27.816532-27.816532-27.816532L289.525558 399.404596c-15.374152 0-27.816532 12.440333-27.816532 27.816532C261.709025 442.596304 274.150382 455.03766 289.525558 455.03766z" p-id="4092"></path><path d="M734.473419 566.301743 289.525558 566.301743c-15.374152 0-27.816532 12.441357-27.816532 27.816532s12.441357 27.816532 27.816532 27.816532l444.947861 0c15.32094 0 27.816532-12.441357 27.816532-27.816532S749.794359 566.301743 734.473419 566.301743z" p-id="4093"></path><path d="M734.473419 733.197868 289.525558 733.197868c-15.374152 0-27.816532 12.440333-27.816532 27.816532 0 15.374152 12.441357 27.816532 27.816532 27.816532l444.947861 0c15.32094 0 27.816532-12.441357 27.816532-27.816532C762.289951 745.638201 749.794359 733.197868 734.473419 733.197868z" p-id="4094"></path><path d="M311.637158 289.390993c15.374152 0 27.816532-12.441357 27.816532-27.816532s-12.441357-27.816532-27.816532-27.816532c-15.375176 0-27.816532 12.441357-27.816532 27.816532S296.261982 289.390993 311.637158 289.390993z" p-id="4095"></path><path d="M478.533282 289.390993c15.374152 0 27.816532-12.441357 27.816532-27.816532s-12.441357-27.816532-27.816532-27.816532-27.816532 12.441357-27.816532 27.816532S463.158107 289.390993 478.533282 289.390993z" p-id="4096"></path><path d="M645.429407 289.390993c15.374152 0 27.815509-12.441357 27.815509-27.816532s-12.440333-27.816532-27.815509-27.816532c-15.375176 0-27.816532 12.441357-27.816532 27.816532S630.054231 289.390993 645.429407 289.390993z" p-id="4097"></path></svg>