<?xml version="1.0" standalone="no"?><!DOCTYPE svg PUBLIC "-//W3C//DTD SVG 1.1//EN" "http://www.w3.org/Graphics/SVG/1.1/DTD/svg11.dtd"><svg t="1604133552289" class="icon" viewBox="0 0 1024 1024" version="1.1" xmlns="http://www.w3.org/2000/svg" p-id="3627" width="25" height="25" xmlns:xlink="http://www.w3.org/1999/xlink"><defs><style type="text/css"></style></defs><path d="M304 776h-96a88 88 0 0 1-88-88V256A88 88 0 0 1 208 168h608A88 88 0 0 1 904 256v432a88 88 0 0 1-88 88H483.296L304 912.416V776z m163.104-48H816c22.08 0 40-17.92 40-40V256c0-22.08-17.92-40-40-40h-608c-22.08 0-40 17.92-40 40v432c0 22.08 17.92 40 40 40H352v87.584l115.104-87.584zM256 416a24 24 0 0 1 0-48h512a24 24 0 1 1 0 48H256z m0 160a24 24 0 1 1 0-48h512a24 24 0 1 1 0 48H256z" fill="#2A2A2A" p-id="3628"></path></svg>