<?xml version="1.0" standalone="no"?><!DOCTYPE svg PUBLIC "-//W3C//DTD SVG 1.1//EN" "http://www.w3.org/Graphics/SVG/1.1/DTD/svg11.dtd"><svg t="1604136152964" class="icon" viewBox="0 0 1024 1024" version="1.1" xmlns="http://www.w3.org/2000/svg" p-id="5558" xmlns:xlink="http://www.w3.org/1999/xlink" width="16" height="16"><defs><style type="text/css"></style></defs><path d="M511.994 259.545c-69.242 0-125.374 56.512-125.374 126.227S442.752 512 511.994 512c69.255 0 125.388-56.512 125.388-126.228s-56.133-126.227-125.388-126.227z m0-252.456c-207.721 0-376.138 169.564-376.138 378.683 0 209.134 376.138 631.139 376.138 631.139s376.151-422.003 376.151-631.139c0-209.12-168.416-378.683-376.151-378.683z m0 631.139c-138.481 0-250.764-113.037-250.764-252.456 0-139.404 112.283-252.455 250.764-252.455 138.495 0 250.777 113.051 250.777 252.455 0 139.419-112.282 252.456-250.777 252.456z" fill="" p-id="5559"></path></svg>